<svg width="24" height="24" viewBox="0 0 24 24" fill="none" xmlns="http://www.w3.org/2000/svg">
<rect width="24" height="24" rx="12" fill="#EEEEF2"/>
<path d="M16.7144 8.625H14.8929L14.459 7.40893C14.429 7.32572 14.3741 7.25379 14.3017 7.20297C14.2293 7.15215 14.143 7.12492 14.0545 7.125H9.94561C9.7648 7.125 9.60275 7.23884 9.54248 7.40893L9.10721 8.625H7.28578C6.69382 8.625 6.21436 9.10446 6.21436 9.69643V15.8036C6.21436 16.3955 6.69382 16.875 7.28578 16.875H16.7144C17.3063 16.875 17.7858 16.3955 17.7858 15.8036V9.69643C17.7858 9.10446 17.3063 8.625 16.7144 8.625ZM12.0001 14.7321C10.8161 14.7321 9.85721 13.7732 9.85721 12.5893C9.85721 11.4054 10.8161 10.4464 12.0001 10.4464C13.184 10.4464 14.1429 11.4054 14.1429 12.5893C14.1429 13.7732 13.184 14.7321 12.0001 14.7321ZM10.7144 12.5893C10.7144 12.9303 10.8498 13.2573 11.0909 13.4984C11.3321 13.7395 11.6591 13.875 12.0001 13.875C12.3411 13.875 12.6681 13.7395 12.9092 13.4984C13.1503 13.2573 13.2858 12.9303 13.2858 12.5893C13.2858 12.2483 13.1503 11.9213 12.9092 11.6801C12.6681 11.439 12.3411 11.3036 12.0001 11.3036C11.6591 11.3036 11.3321 11.439 11.0909 11.6801C10.8498 11.9213 10.7144 12.2483 10.7144 12.5893Z" fill="#959599"/>
</svg>
