<svg width="48" height="48" viewBox="0 0 48 48" fill="none" xmlns="http://www.w3.org/2000/svg">
<circle cx="24" cy="24" r="24" fill="#49494D"/>
<mask id="path-2-inside-1_859_7828" fill="white">
<path fill-rule="evenodd" clip-rule="evenodd" d="M30.406 15.8787C29.2344 14.7071 27.3349 14.7071 26.1633 15.8787L25.4562 16.5858L29.6989 20.8284L30.406 20.1213C31.5775 18.9497 31.5775 17.0503 30.406 15.8787ZM28.6382 21.8891L24.3956 17.6464L18.0627 23.9793C17.546 24.496 17.2353 25.1832 17.1886 25.9124L16.9853 29.0899C16.9777 29.2086 17.0761 29.307 17.1948 29.2994L20.3723 29.096C21.1015 29.0494 21.7887 28.7386 22.3053 28.222L28.6382 21.8891Z"/>
</mask>
<path fill-rule="evenodd" clip-rule="evenodd" d="M30.406 15.8787C29.2344 14.7071 27.3349 14.7071 26.1633 15.8787L25.4562 16.5858L29.6989 20.8284L30.406 20.1213C31.5775 18.9497 31.5775 17.0503 30.406 15.8787ZM28.6382 21.8891L24.3956 17.6464L18.0627 23.9793C17.546 24.496 17.2353 25.1832 17.1886 25.9124L16.9853 29.0899C16.9777 29.2086 17.0761 29.307 17.1948 29.2994L20.3723 29.096C21.1015 29.0494 21.7887 28.7386 22.3053 28.222L28.6382 21.8891Z" fill="white"/>
<path d="M26.1633 15.8787L25.1027 14.818L25.1027 14.818L26.1633 15.8787ZM30.406 15.8787L31.4666 14.818L31.4666 14.818L30.406 15.8787ZM25.4562 16.5858L24.3956 15.5251L24.3956 17.6464L25.4562 16.5858ZM29.6989 20.8284L28.6382 21.8891L30.7595 21.8891L29.6989 20.8284ZM30.406 20.1213L31.4666 21.182L31.4666 21.182L30.406 20.1213ZM28.6382 21.8891L29.6989 22.9497L29.6989 20.8284L28.6382 21.8891ZM24.3956 17.6464L25.4562 16.5858L23.3349 16.5858L24.3956 17.6464ZM18.0627 23.9793L17.002 22.9187L17.002 22.9187L18.0627 23.9793ZM17.1886 25.9124L15.6917 25.8166L15.6917 25.8166L17.1886 25.9124ZM16.9853 29.0899L15.4883 28.994L15.4883 28.994L16.9853 29.0899ZM17.1948 29.2994L17.099 27.8024L17.099 27.8024L17.1948 29.2994ZM20.3723 29.096L20.4681 30.593L20.4681 30.593L20.3723 29.096ZM27.224 16.9393C27.8098 16.3536 28.7595 16.3536 29.3453 16.9393L31.4666 14.818C29.7093 13.0607 26.86 13.0607 25.1027 14.818L27.224 16.9393ZM26.5169 17.6464L27.224 16.9393L25.1027 14.818L24.3956 15.5251L26.5169 17.6464ZM24.3956 17.6464L28.6382 21.8891L30.7595 19.7678L26.5169 15.5251L24.3956 17.6464ZM29.3453 19.0607L28.6382 19.7678L30.7595 21.8891L31.4666 21.182L29.3453 19.0607ZM29.3453 16.9393C29.9311 17.5251 29.9311 18.4749 29.3453 19.0607L31.4666 21.182C33.224 19.4246 33.224 16.5754 31.4666 14.818L29.3453 16.9393ZM29.6989 20.8284L25.4562 16.5858L23.3349 18.7071L27.5776 22.9497L29.6989 20.8284ZM19.1234 25.04L25.4562 18.7071L23.3349 16.5858L17.002 22.9187L19.1234 25.04ZM18.6856 26.0082C18.7089 25.643 18.8646 25.2988 19.1234 25.04L17.002 22.9187C16.2275 23.6932 15.7617 24.7234 15.6917 25.8166L18.6856 26.0082ZM18.4822 29.1857L18.6856 26.0082L15.6917 25.8166L15.4883 28.994L18.4822 29.1857ZM17.099 27.8024C17.8828 27.7523 18.5324 28.4019 18.4822 29.1857L15.4883 28.994C15.423 30.0153 16.2694 30.8617 17.2906 30.7963L17.099 27.8024ZM20.2765 27.5991L17.099 27.8024L17.2906 30.7963L20.4681 30.593L20.2765 27.5991ZM21.2447 27.1613C20.9859 27.4201 20.6417 27.5757 20.2765 27.5991L20.4681 30.593C21.5612 30.523 22.5914 30.0572 23.366 29.2826L21.2447 27.1613ZM27.5776 20.8284L21.2447 27.1613L23.366 29.2826L29.6989 22.9497L27.5776 20.8284Z" fill="white" mask="url(#path-2-inside-1_859_7828)"/>
<path fill-rule="evenodd" clip-rule="evenodd" d="M17.25 31.1299C17.25 30.7157 17.5858 30.3799 18 30.3799H30C30.4142 30.3799 30.75 30.7157 30.75 31.1299C30.75 31.5441 30.4142 31.8799 30 31.8799H18C17.5858 31.8799 17.25 31.5441 17.25 31.1299Z" fill="white"/>
</svg>
