<svg width="128" height="128" viewBox="0 0 128 128" fill="none" xmlns="http://www.w3.org/2000/svg">
<g clip-path="url(#clip0_694_7843)">
<rect width="128" height="128" transform="matrix(-1 0 0 1 128 0)" fill="#FFD7BD"/>
<path d="M163.108 44.1524C146.006 24.5712 119.36 13.7807 91.6036 17.8532C76.144 20.1134 63.1925 23.4776 50.9514 32.612C46.1015 36.2366 41.3959 40.6215 37.9001 45.7459C35.2032 49.6934 33.4497 54.0783 33.4497 54.0783C33.2056 54.6824 31.3522 59.3694 30.4865 65.2333C28.278 80.0963 33.938 88.9703 34.2599 89.6161C42.2283 106.239 63.137 115.061 80.6387 113.697C100.671 112.124 122.967 105.26 143.187 107.979C157.326 109.874 170.011 116.644 180.299 126.445C183.884 129.862 189.688 127.289 189.855 122.217C190.876 91.4388 185.782 70.0974 163.131 44.1628L163.108 44.1524Z" fill="#FF812E"/>
<path fill-rule="evenodd" clip-rule="evenodd" d="M40.1085 61.0515L64.3286 64.2377C65.1714 64.3486 65.8837 64.7995 66.3342 65.4241C69.6334 64.0545 72.7877 64.2759 75.1992 64.9996C75.5612 64.3772 76.1651 63.8803 76.9262 63.6584L100.379 56.8215C102.116 56.3152 103.904 57.4548 103.898 59.264C103.878 65.6459 101.343 74.7409 91.1118 77.0313C87.8712 78.1655 80.6912 77.7123 75.4947 68.2901C73.4008 67.3732 69.9651 66.7693 66.4044 68.7172C62.6918 78.7132 55.7067 80.2397 52.3446 79.6146C41.8837 78.9088 37.9934 70.3058 37.0022 64.0013C36.7212 62.2141 38.3148 60.8155 40.1085 61.0515Z" fill="#303033"/>
<path fill-rule="evenodd" clip-rule="evenodd" d="M76.5479 80.2382C76.0745 79.8778 75.3766 79.9289 74.9703 80.3743C72.7418 82.8171 69.5609 82.973 68.3254 82.7581C67.7489 82.6578 67.1274 82.9969 66.9984 83.6156C66.866 84.2508 67.328 84.7951 67.9134 84.897C69.677 85.2038 73.7821 84.995 76.6968 81.8001C77.1279 81.3275 77.0473 80.6183 76.5479 80.2382L76.2451 80.636L76.5479 80.2382Z" fill="#303033"/>
</g>
<defs>
<clipPath id="clip0_694_7843">
<rect width="128" height="128" fill="white" transform="matrix(-1 0 0 1 128 0)"/>
</clipPath>
</defs>
</svg>
