<svg width="84" height="86" viewBox="0 0 84 86" fill="none" xmlns="http://www.w3.org/2000/svg">
<path fill-rule="evenodd" clip-rule="evenodd" d="M8.85742 0.856934C4.43914 0.856934 0.857422 4.43865 0.857422 8.85693V61.4284C0.857422 65.8466 4.43915 69.4284 8.85743 69.4284H18V82.7572C18 85.4299 21.2314 86.7684 23.1213 84.8785L38.5715 69.4284H75.1431C79.5614 69.4284 83.1431 65.8466 83.1431 61.4284V8.85693C83.1431 4.43866 79.5614 0.856934 75.1431 0.856934H8.85742Z" fill="#C2C2C7"/>
<path fill-rule="evenodd" clip-rule="evenodd" d="M21.4287 28.2855C21.4287 26.392 22.9637 24.8569 24.8573 24.8569H59.143C61.0365 24.8569 62.5716 26.392 62.5716 28.2855C62.5716 30.1791 61.0365 31.7141 59.143 31.7141H24.8573C22.9637 31.7141 21.4287 30.1791 21.4287 28.2855Z" fill="#DCDCE0"/>
<path fill-rule="evenodd" clip-rule="evenodd" d="M21.4287 41.9999C21.4287 40.1063 22.9637 38.5713 24.8573 38.5713H59.143C61.0365 38.5713 62.5716 40.1063 62.5716 41.9999C62.5716 43.8934 61.0365 45.4284 59.143 45.4284H24.8573C22.9637 45.4284 21.4287 43.8934 21.4287 41.9999Z" fill="#DCDCE0"/>
</svg>
