<svg width="97" height="96" viewBox="0 0 97 96" fill="none" xmlns="http://www.w3.org/2000/svg">
<ellipse cx="55.5" cy="86.5" rx="17" ry="2.5" fill="#FCFCFE"/>
<path fill-rule="evenodd" clip-rule="evenodd" d="M65.587 73.904C71.0706 68.1072 75.95 61.2022 80.209 54.4542C82.6961 50.5135 84.0911 45.9156 84.0911 40.7384C84.0911 22.1052 70.3937 7 48.3727 7C26.3516 7 8.5 22.1052 8.5 40.7384C8.5 59.3716 21.9789 70.5 44 70.5C47.5762 70.5 51.0482 70.2065 54.3555 69.635C57.5697 69.0797 60.7926 71.1501 61.2248 74.3831C61.4041 75.7246 63.0094 76.3208 64.0209 75.4217C64.5711 74.9326 65.0931 74.4262 65.587 73.904Z" fill="#DCDCE0"/>
<path d="M27.1861 39.8007C28.4803 40.3583 30.0495 39.6098 30.691 38.129C31.3326 36.6482 30.8036 34.9958 29.5095 34.4382C28.2154 33.8807 26.6462 34.6291 26.0046 36.11C25.363 37.5908 25.892 39.2432 27.1861 39.8007Z" fill="white"/>
<path d="M45.9177 40.8037C47.2118 41.3612 48.781 40.6127 49.4226 39.1319C50.0642 37.6511 49.5352 35.9987 48.2411 35.4412C46.9469 34.8836 45.3777 35.6321 44.7362 37.1129C44.0946 38.5937 44.6236 40.2461 45.9177 40.8037Z" fill="white"/>
<path d="M41.4664 43.5982C41.3323 45.7099 39.6042 47.3189 37.6065 47.192C35.6089 47.0651 34.0982 45.2504 34.2323 43.1387C34.3664 41.027 35.9692 41.3915 37.9669 41.5184C39.9645 41.6453 41.6006 41.4865 41.4664 43.5982Z" fill="white"/>
</svg>
