<svg width="28" height="28" viewBox="0 0 28 28" fill="none" xmlns="http://www.w3.org/2000/svg">
<g clip-path="url(#clip0_65_1338)">
<rect width="28" height="28" rx="8" transform="matrix(-1 0 0 1 28 0)" fill="#FFD7BD"/>
<path d="M35.68 9.65833C31.9389 5.37495 26.11 3.01454 20.0383 3.90539C16.6565 4.3998 13.8234 5.13572 11.1456 7.13387C10.0847 7.92675 9.05536 8.88595 8.29064 10.0069C7.70071 10.8704 7.31713 11.8296 7.31713 11.8296C7.26372 11.9618 6.85829 12.9871 6.66893 14.2698C6.18582 17.5211 7.42395 19.4623 7.49435 19.6035C9.23744 23.2398 13.8112 25.1696 17.6397 24.8712C22.0217 24.5271 26.899 23.0257 31.3222 23.6203C34.4151 24.035 37.19 25.5159 39.4405 27.6599C40.2246 28.4072 41.4943 27.8445 41.5307 26.7349C41.7541 20.0022 40.6397 15.3338 35.6848 9.66061L35.68 9.65833Z" fill="#FF812E"/>
<path fill-rule="evenodd" clip-rule="evenodd" d="M8.77396 13.355L14.0721 14.052C14.2565 14.0762 14.4123 14.1749 14.5109 14.3115C15.2326 14.0119 15.9226 14.0604 16.4501 14.2187C16.5292 14.0825 16.6614 13.9738 16.8279 13.9253L21.9581 12.4297C22.3381 12.3189 22.7292 12.5682 22.7279 12.964C22.7236 14.36 22.1691 16.3496 19.931 16.8506C19.2221 17.0987 17.6514 16.9996 16.5147 14.9385C16.0567 14.7379 15.3051 14.6058 14.5262 15.0319C13.714 17.2185 12.1861 17.5524 11.4506 17.4157C9.16228 17.2613 8.31128 15.3794 8.09446 14.0003C8.033 13.6093 8.38158 13.3034 8.77396 13.355Z" fill="#303033"/>
<path fill-rule="evenodd" clip-rule="evenodd" d="M16.7448 17.5521C16.6413 17.4733 16.4886 17.4844 16.3997 17.5819C15.9122 18.1162 15.2164 18.1504 14.9461 18.1033C14.82 18.0814 14.6841 18.1556 14.6559 18.2909C14.6269 18.4299 14.728 18.5489 14.856 18.5712C15.2418 18.6383 16.1398 18.5927 16.7774 17.8938C16.8717 17.7904 16.8541 17.6353 16.7448 17.5521Z" fill="#303033"/>
</g>
<defs>
<clipPath id="clip0_65_1338">
<rect width="28" height="28" rx="8" transform="matrix(-1 0 0 1 28 0)" fill="white"/>
</clipPath>
</defs>
</svg>
