<svg width="16" height="16" viewBox="0 0 16 16" fill="none" xmlns="http://www.w3.org/2000/svg">
<rect x="0.999969" y="1" width="14" height="14" rx="2" fill="#FF7070"/>
<path fill-rule="evenodd" clip-rule="evenodd" d="M7.99999 8.5C9.19661 8.5 10.1667 7.52995 10.1667 6.33333C10.1667 5.13672 9.19661 4.16667 7.99999 4.16667C6.80337 4.16667 5.83332 5.13672 5.83332 6.33333C5.83332 7.52995 6.80337 8.5 7.99999 8.5ZM8.58332 9.6158C10.1461 9.33995 11.3333 7.97528 11.3333 6.33333C11.3333 4.49238 9.84094 3 7.99999 3C6.15904 3 4.66666 4.49238 4.66666 6.33333C4.66666 7.97528 5.85384 9.33995 7.41666 9.6158V10.1943H5.77774V11.3609H7.41666V13H8.58332V11.3609H10.2222V10.1943H8.58332V9.6158Z" fill="#FCFCFE"/>
</svg>
