<svg width="16" height="16" viewBox="0 0 16 16" fill="none" xmlns="http://www.w3.org/2000/svg">
<rect x="1" y="1" width="14" height="14" rx="2" fill="#FF7070"/>
<path fill-rule="evenodd" clip-rule="evenodd" d="M7.99984 8.5C9.19645 8.5 10.1665 7.52995 10.1665 6.33333C10.1665 5.13672 9.19645 4.16667 7.99984 4.16667C6.80322 4.16667 5.83317 5.13672 5.83317 6.33333C5.83317 7.52995 6.80322 8.5 7.99984 8.5ZM8.58317 9.6158C10.146 9.33995 11.3332 7.97528 11.3332 6.33333C11.3332 4.49238 9.84079 3 7.99984 3C6.15889 3 4.6665 4.49238 4.6665 6.33333C4.6665 7.97528 5.85369 9.33995 7.4165 9.6158V10.1943H5.77759V11.3609H7.4165V13H8.58317V11.3609H10.222V10.1943H8.58317V9.6158Z" fill="#FCFCFE"/>
</svg>
