<svg width="18" height="18" viewBox="0 0 18 18" fill="none" xmlns="http://www.w3.org/2000/svg">
<path fill-rule="evenodd" clip-rule="evenodd" d="M9.00004 15.036C13.3493 15.036 16.8751 12.0526 16.8751 8.37248C16.8751 4.69233 13.3493 1.70898 9.00004 1.70898C4.65078 1.70898 1.125 4.69233 1.125 8.37248C1.125 10.7315 2.57378 12.8043 4.75955 13.9884V14.9786C4.75955 16.1076 6.09349 16.7067 6.93732 15.9566L8.01361 14.9999C8.01885 14.9952 8.02404 14.9905 8.02918 14.9858C8.34732 15.0189 8.67133 15.036 9.00004 15.036Z" fill="#FF9856"/>
<path d="M10.9312 10.5865C10.9312 10.8149 10.7461 11 10.5178 11H8.07519C7.80094 11 7.57861 10.7777 7.57861 10.5034C7.57861 10.356 7.64427 10.2165 7.75482 10.119C7.77072 10.105 7.78716 10.0905 7.80412 10.0754C7.89433 9.99019 7.99456 9.89498 8.10481 9.78974C8.22007 9.6845 8.34034 9.56924 8.46562 9.44395C8.59091 9.31867 8.71369 9.18838 8.83396 9.05307C9.00435 8.86264 9.15218 8.68974 9.27747 8.53439C9.40776 8.37904 9.513 8.23371 9.59318 8.0984C9.67838 7.95809 9.74102 7.82278 9.78111 7.69248C9.8212 7.55718 9.84124 7.41936 9.84124 7.27905C9.84124 7.17882 9.81869 7.0811 9.77359 6.98588C9.72849 6.89066 9.66585 6.80798 9.58566 6.73782C9.50548 6.66265 9.40776 6.60502 9.2925 6.56493C9.18225 6.51982 9.05947 6.49727 8.92416 6.49727C8.74376 6.49727 8.57838 6.52484 8.42804 6.57996C8.40154 6.59001 8.37479 6.60131 8.34779 6.61386C8.13372 6.71337 7.86354 6.67063 7.74738 6.46512C7.65142 6.29534 7.69801 6.07826 7.86835 5.98329C7.99768 5.91118 8.13413 5.84697 8.2777 5.79067C8.53829 5.68543 8.83647 5.63281 9.17223 5.63281C9.38772 5.63281 9.59318 5.66288 9.78863 5.72302C9.98908 5.78315 10.1645 5.87336 10.3148 5.99363C10.4702 6.10889 10.5929 6.25422 10.6832 6.42962C10.7734 6.60502 10.8185 6.80798 10.8185 7.0385C10.8185 7.19886 10.8034 7.3492 10.7734 7.48952C10.7483 7.62483 10.7057 7.76264 10.6456 7.90296C10.5904 8.03827 10.5153 8.17859 10.4201 8.32392C10.3299 8.46924 10.2196 8.6271 10.0893 8.79749C9.98908 8.92778 9.87883 9.06059 9.75856 9.19589C9.6433 9.32619 9.52803 9.45147 9.41277 9.57174C9.29751 9.69202 9.18225 9.80477 9.06699 9.91001C8.95674 10.0153 8.85651 10.1029 8.76631 10.1731H10.5178C10.7461 10.1731 10.9312 10.3582 10.9312 10.5865Z" fill="white"/>
</svg>
