<svg width="18" height="18" viewBox="0 0 18 18" fill="none" xmlns="http://www.w3.org/2000/svg">
<path fill-rule="evenodd" clip-rule="evenodd" d="M9.00004 15.036C13.3493 15.036 16.8751 12.0526 16.8751 8.37248C16.8751 4.69233 13.3493 1.70898 9.00004 1.70898C4.65078 1.70898 1.125 4.69233 1.125 8.37248C1.125 10.7315 2.57378 12.8043 4.75955 13.9884V14.9786C4.75955 16.1076 6.09349 16.7067 6.93732 15.9566L8.01361 14.9999C8.01885 14.9952 8.02404 14.9905 8.02918 14.9858C8.34732 15.0189 8.67133 15.036 9.00004 15.036Z" fill="#FF812E"/>
<path d="M7.54658 10.3485C7.54658 10.1202 7.73169 9.93506 7.96002 9.93506H8.69669V6.65011L8.00562 7.17888C7.83976 7.30579 7.60221 7.27302 7.4769 7.10594C7.35317 6.94097 7.38559 6.7071 7.54951 6.582L8.83447 5.60138C8.92063 5.53562 9.02602 5.5 9.13441 5.5C9.40745 5.5 9.6288 5.72135 9.6288 5.9944V9.93506H10.3429C10.5713 9.93506 10.7564 10.1202 10.7564 10.3485C10.7564 10.5768 10.5713 10.7619 10.3429 10.7619H7.96002C7.73169 10.7619 7.54658 10.5768 7.54658 10.3485Z" fill="white"/>
</svg>
