<svg width="18" height="18" viewBox="0 0 18 18" fill="none" xmlns="http://www.w3.org/2000/svg">
<path fill-rule="evenodd" clip-rule="evenodd" d="M9.00004 15.036C13.3493 15.036 16.8751 12.0526 16.8751 8.37248C16.8751 4.69233 13.3493 1.70898 9.00004 1.70898C4.65078 1.70898 1.125 4.69233 1.125 8.37248C1.125 10.7315 2.57378 12.8043 4.75955 13.9884V14.9786C4.75955 16.1076 6.09349 16.7067 6.93732 15.9566L8.01361 14.9999C8.01885 14.9952 8.02404 14.9905 8.02918 14.9858C8.34732 15.0189 8.67133 15.036 9.00004 15.036Z" fill="#FFB07E"/>
<path d="M8.86431 10.2786C9.02969 10.2786 9.18003 10.2585 9.31533 10.2184C9.45565 10.1733 9.57342 10.1132 9.66864 10.038C9.76886 9.95785 9.84654 9.86765 9.90166 9.76742C9.95679 9.66218 9.98435 9.54942 9.98435 9.42915C9.98435 9.27881 9.95178 9.15353 9.88663 9.0533C9.82649 8.94806 9.7413 8.86537 9.63105 8.80524C9.5208 8.7451 9.388 8.7025 9.23265 8.67745C9.07729 8.65239 8.90941 8.63986 8.729 8.63986H8.70123C8.48408 8.63986 8.30805 8.46383 8.30805 8.24668C8.30805 8.15581 8.33953 8.06774 8.39712 7.99746L9.57091 6.56516H8.08254C7.8542 6.56516 7.6691 6.38005 7.6691 6.15172C7.6691 5.92338 7.8542 5.73828 8.08254 5.73828H10.2389C10.5135 5.73828 10.7361 5.96086 10.7361 6.23543C10.7361 6.35592 10.6923 6.4723 10.6129 6.56294L9.41306 7.93326H9.58595C9.76135 7.93326 9.93173 7.96333 10.0971 8.02346C10.2625 8.0836 10.4078 8.1738 10.5331 8.29408C10.6634 8.41435 10.7661 8.56469 10.8413 8.7451C10.9215 8.92551 10.9616 9.13348 10.9616 9.36901C10.9616 9.65466 10.9014 9.90523 10.7812 10.1207C10.6659 10.3362 10.5105 10.5191 10.3151 10.6695C10.1247 10.8148 9.90417 10.925 9.6536 11.0002C9.40303 11.0704 9.14495 11.1055 8.87935 11.1055C8.65383 11.1055 8.42832 11.0854 8.20281 11.0453C8.10004 11.027 7.99884 11.0041 7.89919 10.9765C7.69817 10.9207 7.59866 10.7036 7.66297 10.5052L7.75159 10.2317C7.78285 10.1353 7.89615 10.0887 7.99233 10.1207C8.07252 10.1458 8.16021 10.1708 8.25543 10.1959C8.35566 10.2209 8.45588 10.241 8.55611 10.256C8.66135 10.2711 8.76408 10.2786 8.86431 10.2786Z" fill="white"/>
</svg>
