<svg width="16" height="16" viewBox="0 0 16 16" fill="none" xmlns="http://www.w3.org/2000/svg">
<rect x="1" y="1" width="14" height="14" rx="2" fill="#708FFF"/>
<path fill-rule="evenodd" clip-rule="evenodd" d="M8.10354 7.89647C7.2574 7.05033 5.88554 7.05033 5.03941 7.89647C4.19327 8.7426 4.19327 10.1145 5.03941 10.9606C5.88554 11.8067 7.2574 11.8067 8.10354 10.9606C8.94967 10.1145 8.94967 8.7426 8.10354 7.89647ZM4.21445 7.07151C5.37548 5.91048 7.17991 5.78497 8.48005 6.695L9.96058 5.21447L8.45708 5.21447L8.45708 4.21447L11.7855 4.21447L11.7855 7.5429L10.7855 7.5429L10.7855 6.03945L9.305 7.51996C10.215 8.82009 10.0895 10.6245 8.92849 11.7856C7.62675 13.0873 5.5162 13.0873 4.21445 11.7856C2.9127 10.4838 2.9127 8.37326 4.21445 7.07151Z" fill="white"/>
</svg>
