<svg width="80" height="30" viewBox="0 0 80 30" fill="none" xmlns="http://www.w3.org/2000/svg">
<g clip-path="url(#clip0_749_9305)">
<path d="M66.7117 17.5178C67.7074 17.9202 68.7478 18.0717 69.8041 17.969C70.3243 17.9185 70.8413 17.8029 71.3407 17.6286C71.5019 17.5716 71.663 17.5081 71.821 17.4396C71.979 17.3712 72.1433 17.2898 72.3061 17.2018C72.4641 17.1171 72.6188 17.0243 72.7672 16.9265C72.9188 16.8272 73.0656 16.7229 73.2028 16.6187C73.3433 16.5095 73.4805 16.3955 73.6081 16.2799C73.7358 16.1642 73.8603 16.0421 73.9863 15.9101C74.1076 15.7814 74.2241 15.6479 74.3326 15.5143C74.4395 15.3824 74.5416 15.2455 74.6469 15.0924C74.7442 14.9523 74.8384 14.8025 74.9277 14.6477C75.0187 14.4914 75.1017 14.3334 75.1751 14.1819C75.2006 14.1297 75.2245 14.076 75.2485 14.0222C75.2947 13.9359 75.3314 13.8463 75.3633 13.7518C75.4224 13.5759 75.4559 13.3886 75.4559 13.1915C75.4559 12.3966 74.9341 11.7304 74.2272 11.5333C74.0884 11.4942 73.9416 11.4714 73.7916 11.4714C73.0098 11.4714 72.3571 12.0285 72.1768 12.7778C71.8561 13.527 71.3056 14.0727 70.5365 14.3985C69.4818 14.8481 68.4781 14.7455 67.5399 14.0988C67.1665 13.8414 66.8665 13.3462 67.6308 13.0905L74.8639 10.0168C75.2963 9.83273 75.574 9.3522 75.4591 8.83096C75.4399 8.74137 75.4048 8.65504 75.3618 8.57359C75.1783 8.21849 74.9708 7.83571 74.8687 7.64838C73.155 4.81411 69.5871 3.67552 66.5649 4.99818C63.1949 6.48373 61.6232 10.4794 63.0641 13.9066C63.763 15.568 65.0603 16.8516 66.7149 17.5195L66.7117 17.5178ZM66.3368 10.0331C66.3463 9.91091 66.3862 9.79363 66.4197 9.67798C66.474 9.49555 66.557 9.32451 66.6607 9.16651C66.8697 8.84888 67.1537 8.58337 67.4713 8.37976C67.6308 8.27713 67.7697 8.20221 67.9085 8.14357C67.9691 8.1175 68.0313 8.09307 68.092 8.07189C68.309 7.99534 68.5324 7.94647 68.7574 7.92367C69.0558 7.89435 69.3685 7.91552 69.6605 7.99859C69.8089 8.04095 69.9541 8.10121 70.0865 8.18103C70.1775 8.23478 70.2716 8.29017 70.3482 8.36509C70.4727 8.48726 70.3674 8.52473 70.2525 8.57848C69.9972 8.69902 69.7307 8.78698 69.4706 8.89774C68.8467 9.16325 68.2228 9.42876 67.5989 9.69264C67.3947 9.77897 67.1888 9.8653 66.9846 9.95326C66.8522 10.0086 66.7229 10.0738 66.5921 10.1292C66.5043 10.1666 66.4261 10.2025 66.3783 10.1813C66.3447 10.1666 66.3272 10.1243 66.3352 10.0347L66.3368 10.0331Z" fill="#C2C2C7"/>
<path d="M59.8089 19.1828C60.6163 19.1828 61.3008 18.6779 61.5322 17.9823C61.6215 17.8309 61.6742 17.6533 61.6742 17.4644V5.86991C61.6742 5.84222 61.679 5.81616 61.679 5.78847C61.679 4.83882 60.8556 4.06836 59.8392 4.06836C58.9201 4.06836 58.1606 4.70037 58.0233 5.52459C57.993 5.62069 57.9771 5.72331 57.9771 5.83082V17.4644C57.9771 17.5833 57.9978 17.6957 58.0345 17.8015C58.2004 18.5883 58.9312 19.1828 59.8073 19.1828H59.8089Z" fill="#C2C2C7"/>
<path d="M26.1519 0.675781C24.9632 0.675781 23.9946 1.66289 23.9946 2.87804C23.9946 4.09319 24.9616 5.07867 26.1519 5.07867C27.3423 5.07867 28.3077 4.09157 28.3077 2.87804C28.3077 1.66452 27.3407 0.675781 26.1519 0.675781Z" fill="#C2C2C7"/>
<path d="M79.2917 16.3375C79.0604 16.1372 78.6886 16.1339 78.1365 16.4809C77.2764 17.0233 76.5536 17.7449 75.7606 18.3769C74.4091 19.4536 72.5469 20.3462 70.2221 21.0303C67.3994 21.8611 63.707 21.9767 60.3466 21.3431C59.1132 21.1118 57.867 20.7714 56.6431 20.3316V5.07536C56.6431 4.94668 56.6176 4.82288 56.5745 4.70886C56.4564 3.86672 55.7017 3.2168 54.7842 3.2168C53.8667 3.2168 53.0497 3.92211 52.9827 4.81311C52.9604 4.89618 52.9476 4.98414 52.9476 5.07536V5.23662C52.0349 4.74958 51.0153 4.49385 49.9909 4.49385C46.4517 4.49385 43.5716 7.434 43.5716 11.0469C43.5716 14.6598 46.4517 17.5999 49.9909 17.5999C51.0153 17.5999 52.0349 17.3442 52.9476 16.8571V19.0969L51.8386 18.745C51.1014 18.6098 50.3722 18.5349 49.6685 18.5219C47.4809 18.4991 44.5385 19.1083 42.812 20.8789C41.8674 21.8448 41.3775 23.0616 41.3919 24.3956C41.4254 27.3081 43.6721 29.4924 46.9799 29.8296C47.2096 29.8524 47.4442 29.8671 47.6756 29.8736C47.7362 29.8736 47.7984 29.8752 47.8591 29.8752C50.9706 29.8752 54.7267 28.103 56.1373 24.1464C57.2894 24.5227 58.4813 24.8289 59.678 25.0553C63.5555 25.7867 67.7073 25.7802 71.4763 24.4999C73.5969 23.7783 75.6856 22.5794 77.3435 21.045C78.0759 20.3674 78.9439 19.4715 79.3604 18.4811C79.6651 17.753 79.7226 16.7089 79.2933 16.3391L79.2917 16.3375ZM49.9909 13.8258C48.4894 13.8258 47.2687 12.5797 47.2687 11.0469C47.2687 9.51409 48.4894 8.26799 49.9909 8.26799C51.4924 8.26799 52.713 9.51409 52.713 11.0469C52.713 12.5797 51.4924 13.8258 49.9909 13.8258ZM52.4976 23.2522C51.387 25.6548 48.8484 26.1662 47.5224 26.0881C47.4618 26.0848 47.4027 26.0799 47.3453 26.075C46.9703 26.0359 45.1034 25.7737 45.0874 24.35C45.0826 24.0373 45.188 23.7864 45.4289 23.5405C45.7049 23.2587 46.1533 22.9964 46.7246 22.783C47.5591 22.4719 48.5979 22.2944 49.5728 22.2944H49.7531C50.5828 22.3139 51.4573 22.4589 52.3508 22.7276C52.4577 22.7602 52.563 22.7928 52.6699 22.8286C52.6189 22.9736 52.5599 23.1153 52.4976 23.2522Z" fill="#C2C2C7"/>
<path d="M28 6.32921C28 5.93176 27.7574 5.64508 27.3506 5.562C27.25 5.54083 27.1431 5.53431 27.0346 5.54246C26.8782 5.55386 26.7235 5.57666 26.5719 5.59947C26.24 5.64833 25.9272 5.69394 25.6065 5.63205C25.5634 5.6239 25.5203 5.61413 25.4773 5.60598C25.3193 5.57178 25.1581 5.5392 24.989 5.54409C24.5853 5.562 24.3013 5.87801 24.3013 6.31129V16.0097C24.3013 16.1498 24.3348 16.2817 24.3922 16.3958C24.6316 17.075 25.3289 17.5653 26.1538 17.5653C26.9788 17.5653 27.7096 17.0489 27.9314 16.3436C27.9745 16.2426 27.9984 16.1286 27.9984 16.0097V15.9902C28.0016 15.9527 28.0048 15.9152 28.0048 15.8778C28.0048 15.8403 28.0016 15.8028 27.9984 15.7654V6.32921H28Z" fill="#C2C2C7"/>
<path d="M21.836 5.23981C20.8563 5.22841 20.0537 5.99073 20.0441 6.94037C20.0441 6.95015 20.0441 6.95829 20.0441 6.96806C20.0346 7.0153 20.0282 7.06417 20.025 7.11304C19.8399 11.0533 18.1357 13.9283 16.7364 13.9642C14.6445 14.0179 13.7078 11.9818 13.5881 8.07897C13.5977 8.01055 13.6041 7.94214 13.6041 7.8721C13.6137 6.92246 12.8206 6.14222 11.8329 6.13244C10.8452 6.12104 10.0346 6.88336 10.0251 7.833C10.0251 7.88839 10.0267 7.94377 10.0314 7.99752C9.84634 11.9378 8.5794 14.0114 6.75238 13.8892C5.89871 13.8322 4.37487 13.6791 3.81799 10.6086C3.45897 8.62628 3.60577 7.06091 4.34136 5.02643C4.619 4.25922 4.95409 3.58486 5.33545 3.02289C5.37055 2.9724 5.39927 2.91538 5.42321 2.85512C5.63064 2.57657 5.75989 1.96248 5.76308 1.59272C5.77744 0.641453 4.9876 0.136496 4.00787 0.125094C3.5196 0.120207 3.07601 0.305901 2.75209 0.612132C2.65955 0.67403 2.57657 0.752217 2.51115 0.846693C0.414468 3.852 -0.475903 10.1656 1.51227 14.1547C2.59093 16.3195 4.39082 17.476 6.71568 17.5021C8.66716 17.5233 10.4527 16.2918 11.7563 14.0293C13.0089 16.2967 14.7609 17.5559 16.6997 17.577C20.3521 17.6178 23.2961 13.1872 23.5641 7.26126C23.5801 7.17005 23.5913 7.07557 23.5929 6.97947C23.6024 6.02982 22.8174 5.24958 21.8376 5.23981H21.836Z" fill="#C2C2C7"/>
<path d="M42.6878 15.8662C42.758 15.3466 42.7469 14.7749 42.7612 14.2585C42.8298 11.7924 43.0628 8.95483 41.5948 6.84705C40.2943 4.97871 38.0971 3.91016 35.868 3.91016C33.6389 3.91016 31.5981 4.90215 30.2817 6.65484C28.4818 9.04931 28.8535 12.6198 28.9988 15.4508C29.0386 16.2181 29.3147 17.0586 29.9881 17.4039C30.3152 17.5717 30.6965 17.5977 31.0587 17.5489C31.6683 17.4642 32.2842 17.127 32.5299 16.552C32.6735 16.2148 32.6767 15.8353 32.6783 15.4688C32.6895 12.6654 31.7353 7.68593 35.8696 7.68593C37.9424 7.68593 39.0785 9.19265 39.0657 11.1766C39.0577 12.4716 39.0497 13.7682 39.0418 15.0632C39.0386 15.6333 39.0418 16.236 39.3306 16.7246C40.272 18.3258 42.466 17.5033 42.6878 15.8678V15.8662Z" fill="#C2C2C7"/>
</g>
<defs>
<clipPath id="clip0_749_9305">
<rect width="79.2" height="29.7501" fill="white" transform="translate(0.399902 0.125)"/>
</clipPath>
</defs>
</svg>
