<svg width="12" height="13" viewBox="0 0 12 13" fill="none" xmlns="http://www.w3.org/2000/svg">
<path d="M6.96931 8.89807C6.94581 8.8748 6.91409 8.86175 6.88103 8.86175C6.84797 8.86175 6.81624 8.8748 6.79275 8.89807L4.97718 10.7138C4.13658 11.5544 2.71788 11.6435 1.78979 10.7138C0.860128 9.78405 0.949188 8.36679 1.78979 7.52612L3.60535 5.71041C3.65379 5.66197 3.65379 5.58228 3.60535 5.53384L2.9835 4.91193C2.96 4.88867 2.92828 4.87562 2.89522 4.87562C2.86216 4.87562 2.83043 4.88867 2.80694 4.91193L0.991374 6.72765C-0.330458 8.04959 -0.330458 10.1888 0.991374 11.5091C2.31321 12.8295 4.4522 12.8311 5.77247 11.5091L7.58803 9.69342C7.63647 9.64498 7.63647 9.56529 7.58803 9.51685L6.96931 8.89807ZM11.0098 1.49145C9.68797 0.169515 7.54897 0.169515 6.2287 1.49145L4.41158 3.30717C4.38831 3.33066 4.37526 3.36239 4.37526 3.39545C4.37526 3.42852 4.38831 3.46024 4.41158 3.48374L5.03187 4.10408C5.0803 4.15252 5.15999 4.15252 5.20842 4.10408L7.02399 2.28837C7.86459 1.4477 9.28329 1.35864 10.2114 2.28837C11.141 3.2181 11.052 4.63536 10.2114 5.47602L8.39582 7.29174C8.37256 7.31523 8.35951 7.34696 8.35951 7.38002C8.35951 7.41309 8.37256 7.44481 8.39582 7.46831L9.01768 8.09021C9.06611 8.13865 9.1458 8.13865 9.19423 8.09021L11.0098 6.2745C12.3301 4.95256 12.3301 2.81339 11.0098 1.49145ZM7.53335 4.31815C7.50986 4.29489 7.47813 4.28184 7.44507 4.28184C7.41201 4.28184 7.38028 4.29489 7.35679 4.31815L3.81784 7.85583C3.79458 7.87932 3.78153 7.91105 3.78153 7.94411C3.78153 7.97718 3.79458 8.0089 3.81784 8.0324L4.43657 8.65118C4.48501 8.69962 4.5647 8.69962 4.61313 8.65118L8.15052 5.11351C8.19895 5.06507 8.19895 4.98537 8.15052 4.93694L7.53335 4.31815Z" fill="#222223"/>
</svg>
