<svg width="16" height="16" viewBox="0 0 16 16" fill="none" xmlns="http://www.w3.org/2000/svg">
<path d="M8 2C4.68661 2 2 4.68661 2 8C2 11.3134 4.68661 14 8 14C11.3134 14 14 11.3134 14 8C14 4.68661 11.3134 2 8 2ZM8.42857 10.8929C8.42857 10.9518 8.38036 11 8.32143 11H7.67857C7.61964 11 7.57143 10.9518 7.57143 10.8929V7.25C7.57143 7.19107 7.61964 7.14286 7.67857 7.14286H8.32143C8.38036 7.14286 8.42857 7.19107 8.42857 7.25V10.8929ZM8 6.28571C7.83178 6.28228 7.6716 6.21304 7.55384 6.09286C7.43609 5.97267 7.37013 5.81112 7.37013 5.64286C7.37013 5.4746 7.43609 5.31304 7.55384 5.19286C7.6716 5.07267 7.83178 5.00343 8 5C8.16822 5.00343 8.3284 5.07267 8.44616 5.19286C8.56391 5.31304 8.62987 5.4746 8.62987 5.64286C8.62987 5.81112 8.56391 5.97267 8.44616 6.09286C8.3284 6.21304 8.16822 6.28228 8 6.28571Z" fill="#F03030"/>
</svg>
