<svg width="200" height="120" viewBox="0 0 200 120" fill="none" xmlns="http://www.w3.org/2000/svg">
<g clip-path="url(#clip0_859_7811)">
<path d="M155.65 81.4966C157.724 82.3177 159.892 82.6268 162.092 82.4174C163.176 82.3143 164.253 82.0783 165.294 81.7226C165.629 81.6063 165.965 81.4766 166.294 81.337C166.623 81.1974 166.966 81.0312 167.305 80.8517C167.634 80.6788 167.956 80.4893 168.266 80.2899C168.581 80.0871 168.887 79.8743 169.173 79.6616C169.466 79.4389 169.751 79.2062 170.017 78.9701C170.283 78.7341 170.543 78.4848 170.805 78.2155C171.058 77.9529 171.301 77.6803 171.527 77.4077C171.749 77.1385 171.962 76.8592 172.182 76.5467C172.384 76.2609 172.58 75.955 172.767 75.6392C172.956 75.3201 173.129 74.9976 173.282 74.6885C173.335 74.5821 173.385 74.4724 173.435 74.3627C173.531 74.1865 173.608 74.0037 173.674 73.8109C173.797 73.4518 173.867 73.0696 173.867 72.6673C173.867 71.0451 172.78 69.6854 171.307 69.2832C171.018 69.2034 170.712 69.1569 170.4 69.1569C168.771 69.1569 167.411 70.2938 167.036 71.823C166.367 73.3521 165.221 74.4657 163.618 75.1306C161.421 76.0481 159.33 75.8387 157.375 74.5189C156.597 73.9937 155.972 72.9831 157.565 72.4612L172.634 66.1883C173.535 65.8127 174.113 64.832 173.874 63.7683C173.834 63.5854 173.761 63.4092 173.671 63.243C173.289 62.5183 172.856 61.7371 172.644 61.3548C169.073 55.5706 161.64 53.2469 155.344 55.9463C148.323 58.978 145.049 67.1324 148.051 74.1267C149.507 77.5174 152.209 80.1369 155.657 81.4999L155.65 81.4966ZM154.869 66.2216C154.889 65.9722 154.972 65.7329 155.042 65.4969C155.155 65.1246 155.328 64.7755 155.544 64.4531C155.979 63.8048 156.571 63.263 157.232 62.8474C157.565 62.638 157.854 62.4851 158.143 62.3654C158.269 62.3122 158.399 62.2624 158.525 62.2191C158.978 62.0629 159.443 61.9632 159.912 61.9166C160.533 61.8568 161.185 61.9 161.793 62.0696C162.102 62.156 162.405 62.279 162.681 62.4419C162.87 62.5516 163.066 62.6646 163.226 62.8175C163.485 63.0668 163.266 63.1433 163.027 63.253C162.495 63.499 161.939 63.6785 161.398 63.9045C160.098 64.4464 158.798 64.9883 157.498 65.5268C157.073 65.703 156.644 65.8792 156.218 66.0587C155.942 66.1717 155.673 66.3047 155.401 66.4177C155.218 66.4942 155.055 66.5673 154.955 66.5241C154.885 66.4942 154.849 66.4077 154.865 66.2249L154.869 66.2216Z" fill="#303033"/>
<path d="M141.269 84.894C142.951 84.894 144.378 83.8635 144.86 82.444C145.046 82.1348 145.155 81.7725 145.155 81.3869V57.7247C145.155 57.6682 145.165 57.615 145.165 57.5585C145.165 55.6205 143.45 54.0481 141.333 54.0481C139.418 54.0481 137.835 55.3379 137.55 57.02C137.486 57.2161 137.453 57.4256 137.453 57.645V81.3869C137.453 81.6295 137.496 81.8589 137.573 82.075C137.919 83.6806 139.441 84.894 141.266 84.894H141.269Z" fill="#303033"/>
<path d="M71.1507 47.1237C68.6741 47.1237 66.6562 49.1382 66.6562 51.6181C66.6562 54.098 68.6708 56.1092 71.1507 56.1092C73.6306 56.1092 75.6417 54.0946 75.6417 51.6181C75.6417 49.1415 73.6272 47.1237 71.1507 47.1237V47.1237Z" fill="#303033"/>
<path d="M181.858 79.0864C181.376 78.6775 180.601 78.6709 179.451 79.379C177.659 80.4859 176.154 81.9586 174.501 83.2484C171.686 85.4457 167.806 87.2674 162.963 88.6636C157.082 90.359 149.39 90.595 142.389 89.3019C139.819 88.8298 137.223 88.1351 134.673 87.2375V56.1024C134.673 55.8398 134.62 55.5872 134.53 55.3545C134.284 53.6358 132.712 52.3094 130.801 52.3094C128.889 52.3094 127.187 53.7489 127.048 55.5672C127.001 55.7368 126.974 55.9163 126.974 56.1024V56.4315C125.073 55.4376 122.949 54.9157 120.815 54.9157C113.441 54.9157 107.441 60.916 107.441 68.2892C107.441 75.6624 113.441 81.6627 120.815 81.6627C122.949 81.6627 125.073 81.1408 126.974 80.1469V84.7177L124.664 83.9997C123.128 83.7238 121.609 83.5709 120.143 83.5443C115.585 83.4977 109.456 84.741 105.859 88.3545C103.891 90.3258 102.87 92.809 102.9 95.5316C102.97 101.475 107.65 105.933 114.542 106.621C115.02 106.668 115.509 106.698 115.991 106.711C116.117 106.711 116.247 106.714 116.373 106.714C122.856 106.714 130.681 103.098 133.62 95.023C136.02 95.7909 138.503 96.4158 140.996 96.8779C149.074 98.3705 157.724 98.3572 165.576 95.7443C169.994 94.2717 174.345 91.825 177.799 88.6936C179.325 87.3107 181.133 85.4823 182.001 83.4612C182.636 81.9752 182.756 79.8444 181.861 79.0897L181.858 79.0864ZM120.815 73.9604C117.686 73.9604 115.143 71.4173 115.143 68.2892C115.143 65.1611 117.686 62.618 120.815 62.618C123.943 62.618 126.486 65.1611 126.486 68.2892C126.486 71.4173 123.943 73.9604 120.815 73.9604ZM126.037 93.1979C123.723 98.1012 118.434 99.1451 115.672 98.9855C115.546 98.9788 115.423 98.9689 115.303 98.9589C114.522 98.8791 110.632 98.3439 110.599 95.4385C110.589 94.8002 110.808 94.2883 111.31 93.7863C111.886 93.2112 112.82 92.676 114.01 92.2406C115.748 91.6056 117.912 91.2433 119.944 91.2433H120.319C122.048 91.2832 123.87 91.579 125.731 92.1275C125.954 92.194 126.173 92.2605 126.396 92.3336C126.29 92.6295 126.167 92.9187 126.037 93.1979V93.1979Z" fill="#303033"/>
<path d="M74.9996 58.6621C74.9996 57.851 74.4943 57.2659 73.6466 57.0964C73.4372 57.0532 73.2145 57.0399 72.9884 57.0565C72.6626 57.0798 72.3402 57.1263 72.0244 57.1728C71.3329 57.2726 70.6814 57.3656 70.0132 57.2393C69.9234 57.2227 69.8337 57.2028 69.7439 57.1861C69.4148 57.1163 69.0791 57.0498 68.7267 57.0598C67.8857 57.0964 67.2939 57.7413 67.2939 58.6255V78.4182C67.2939 78.7041 67.3638 78.9734 67.4834 79.2061C67.9821 80.5923 69.4348 81.5929 71.1534 81.5929C72.8721 81.5929 74.3946 80.5391 74.8567 79.0997C74.9464 78.8936 74.9963 78.6609 74.9963 78.4182V78.3783C75.0029 78.3019 75.0096 78.2254 75.0096 78.149C75.0096 78.0725 75.0029 77.996 74.9963 77.9196V58.6621H74.9996Z" fill="#303033"/>
<path d="M62.1586 56.4381C60.1175 56.4149 58.4454 57.9706 58.4254 59.9087C58.4254 59.9286 58.4254 59.9452 58.4254 59.9652C58.4055 60.0616 58.3922 60.1613 58.3856 60.2611C57.9999 68.3025 54.4496 74.1698 51.5342 74.2429C47.1761 74.3526 45.2248 70.1973 44.9755 62.2323C44.9954 62.0927 45.0087 61.9531 45.0087 61.8102C45.0286 59.8721 43.3765 58.2798 41.3188 58.2598C39.261 58.2366 37.5723 59.7923 37.5524 61.7304C37.5524 61.8434 37.5557 61.9564 37.5657 62.0661C37.18 70.1075 34.5406 74.3393 30.7343 74.09C28.9558 73.9737 25.7811 73.6612 24.621 67.3949C23.873 63.3493 24.1788 60.1547 25.7113 56.0027C26.2898 54.4369 26.9878 53.0607 27.7823 51.9138C27.8555 51.8108 27.9153 51.6944 27.9652 51.5714C28.3973 51.003 28.6666 49.7497 28.6732 48.9951C28.7032 47.0537 27.0577 46.0232 25.0166 45.9999C23.9993 45.99 23.0752 46.3689 22.4004 46.9939C22.2075 47.1202 22.0347 47.2798 21.8984 47.4726C17.5303 53.6059 15.6754 66.4907 19.8174 74.6319C22.0646 79.0498 25.8144 81.41 30.6578 81.4632C34.7234 81.5064 38.4433 78.9933 41.1592 74.3759C43.7687 79.0033 47.4188 81.5729 51.4578 81.6161C59.067 81.6993 65.2003 72.6572 65.7588 60.5636C65.792 60.3774 65.8153 60.1846 65.8186 59.9885C65.8386 58.0504 64.203 56.4581 62.1619 56.4381H62.1586Z" fill="#303033"/>
<path d="M105.6 78.1257C105.746 77.0653 105.723 75.8984 105.753 74.8447C105.896 69.8117 106.381 64.0208 103.323 59.7192C100.613 55.9063 96.0358 53.7256 91.3918 53.7256C86.7478 53.7256 82.4961 55.7501 79.7536 59.327C76.0038 64.2136 76.7783 71.5004 77.0809 77.278C77.164 78.8437 77.7391 80.5591 79.1419 81.2638C79.8234 81.6062 80.6179 81.6594 81.3725 81.5597C82.6424 81.3868 83.9255 80.6987 84.4375 79.5252C84.7366 78.8371 84.7433 78.0625 84.7466 77.3146C84.7699 71.5935 82.782 61.4312 91.3951 61.4312C95.7134 61.4312 98.0803 64.5062 98.0537 68.5551C98.037 71.1979 98.0204 73.8441 98.0038 76.4868C97.9971 77.6503 98.0038 78.8803 98.6055 79.8776C100.567 83.1454 105.138 81.4666 105.6 78.129V78.1257Z" fill="#303033"/>
</g>
<g clip-path="url(#clip1_859_7811)">
<path d="M164.932 25.1731C159.16 18.5578 150.167 14.9124 140.799 16.2882C135.581 17.0518 131.21 18.1884 127.079 21.2743C125.442 22.4988 123.854 23.9802 122.674 25.7115C121.764 27.0451 121.172 28.5265 121.172 28.5265C121.09 28.7306 120.464 30.314 120.172 32.2951C119.427 37.3163 121.337 40.3143 121.446 40.5324C124.135 46.1484 131.192 49.1288 137.098 48.6678C143.859 48.1365 151.384 45.8176 158.209 46.736C162.981 47.3764 167.262 49.6636 170.734 52.9748C171.944 54.1289 173.903 53.2598 173.959 51.5461C174.303 41.1482 172.584 33.9383 164.939 25.1766L164.932 25.1731Z" fill="#FF812E"/>
<path d="M130.856 34.5882C131.606 34.6035 132.229 33.9202 132.249 33.0618C132.268 32.2034 131.676 31.4952 130.926 31.4798C130.177 31.4645 129.554 32.1479 129.534 33.0062C129.515 33.8646 130.107 34.5728 130.856 34.5882Z" fill="#211B15"/>
<path d="M140.289 31.3282C141.039 31.3435 141.662 30.6601 141.681 29.8018C141.7 28.9434 141.109 28.2352 140.359 28.2198C139.61 28.2045 138.986 28.8878 138.967 29.7462C138.948 30.6046 139.539 31.3128 140.289 31.3282Z" fill="#211B15"/>
<path d="M138.655 33.5976C139.013 34.6651 138.483 35.8045 137.474 36.1424C136.464 36.4803 135.355 35.8888 134.998 34.8212C134.641 33.7537 135.504 33.612 136.514 33.2741C137.524 32.9362 138.298 32.5301 138.655 33.5976Z" fill="#5F463E"/>
</g>
<defs>
<clipPath id="clip0_859_7811">
<rect width="165" height="60.7144" fill="white" transform="translate(17.5 46)"/>
</clipPath>
<clipPath id="clip1_859_7811">
<rect width="54" height="40" fill="white" transform="translate(120 13.5)"/>
</clipPath>
</defs>
</svg>
