<svg width="24" height="24" viewBox="0 0 24 24" fill="#fff" xmlns="http://www.w3.org/2000/svg">
<path fill-rule="evenodd" clip-rule="evenodd" d="M3.11111 7.61108C3.72476 7.61108 4.22222 8.06709 4.22222 8.6296V16.7778C4.22222 17.3403 4.71968 17.7963 5.33333 17.7963H18.6667C19.2803 17.7963 19.7778 17.3403 19.7778 16.7778V8.6296C19.7778 8.06709 20.2752 7.61108 20.8889 7.61108C21.5025 7.61108 22 8.06709 22 8.6296V16.7778C22 18.4653 20.5076 19.8333 18.6667 19.8333H5.33333C3.49238 19.8333 2 18.4653 2 16.7778V8.6296C2 8.06709 2.49746 7.61108 3.11111 7.61108Z" fill="#fff"/>
<path fill-rule="evenodd" clip-rule="evenodd" d="M12.7858 3.49206C12.3519 3.05815 11.6484 3.05815 11.2144 3.49206L7.8811 6.8254C7.44719 7.25931 7.44719 7.96283 7.8811 8.39674C8.31502 8.83066 9.01853 8.83066 9.45245 8.39674L10.889 6.9602V12.2575C10.889 12.8712 11.3865 13.3686 12.0001 13.3686C12.6138 13.3686 13.1112 12.8712 13.1112 12.2575V6.96019L14.5478 8.39674C14.9817 8.83066 15.6852 8.83066 16.1191 8.39674C16.553 7.96283 16.553 7.25931 16.1191 6.8254L12.7858 3.49206Z" fill="#fff"/>
</svg>
