<svg width="248" height="232" viewBox="0 0 248 232" fill="none" xmlns="http://www.w3.org/2000/svg">
<path d="M7.85705 117.092C-0.515123 107.198 4.03339 98.9443 9.86419 93.4976C19.2556 84.7248 33.1078 76.7199 33.7167 76.111L44.8751 117.092C22.3463 125.008 15.4682 125.464 7.85705 117.092Z" fill="#FF9856"/>
<path d="M96.5766 11.4088C83.0904 13.4548 70.1883 17.6429 59.1889 24.2953C33.7028 39.7042 18.8831 67.6917 21.2512 96.0118C21.8103 102.698 22.8308 109.348 24.5095 115.847C27.4287 127.148 30.5235 136.206 37.128 144.845C50.728 162.656 64.7597 170.508 92.7473 174.546C104.458 176.235 116.354 175.708 128.005 173.691C157.627 168.563 192.589 161.791 219.493 172.752C230.099 177.073 242.131 170.095 243.266 159.224C249.604 98.5143 225.395 38.5761 160.63 16.8166C141.426 10.3635 118.243 8.12319 96.5702 11.4094L96.5766 11.4088Z" fill="#FF9856"/>
<path d="M44.1325 117.092C21.6036 125.008 13.9463 125.464 6.33517 117.092C-2.03701 107.198 3.29071 98.9443 9.12151 93.4976C18.5129 84.7248 21.9411 83.5698 22.55 82.9609" stroke="#FFB07E" stroke-width="3.04444" stroke-linecap="round"/>
<path d="M75.5937 69.249C78.1144 69.988 80.8488 68.2481 81.701 65.363C82.5532 62.4778 81.2006 59.5398 78.6799 58.8009C76.1592 58.0619 73.4249 59.8018 72.5726 62.687C71.7204 65.5721 73.073 68.5101 75.5937 69.249Z" fill="#211B15"/>
<path d="M110.481 66.8699C113.002 67.6088 115.736 65.869 116.588 62.9838C117.44 60.0986 116.088 57.1607 113.567 56.4217C111.046 55.6828 108.312 57.4226 107.46 60.3078C106.608 63.193 107.96 66.1309 110.481 66.8699Z" fill="#211B15"/>
<path d="M102.876 73.0478C103.105 76.9856 100.272 80.3537 96.5466 80.5708C92.8215 80.7878 89.6157 77.7716 89.3862 73.8338C89.1568 69.8961 92.205 70.2079 95.9301 69.9909C99.6552 69.7738 102.647 69.1101 102.876 73.0478Z" fill="#5F463E"/>
<rect x="26.179" y="81.0649" width="136.894" height="105.033" rx="14.0044" transform="rotate(7.06135 26.179 81.0649)" fill="#EEEEF2"/>
<path fill-rule="evenodd" clip-rule="evenodd" d="M42.1366 102.515C43.4204 101.07 45.6333 100.938 47.0792 102.222L86.0654 136.837L132.319 112.781C134.035 111.889 136.149 112.556 137.041 114.271C137.933 115.987 137.266 118.101 135.55 118.993L87.1584 144.161C85.8708 144.831 84.3036 144.637 83.2184 143.673L42.4301 107.458C40.9842 106.174 40.8528 103.961 42.1366 102.515Z" fill="#DCDCE0"/>
<ellipse cx="132.679" cy="221.483" rx="76.8722" ry="9.89444" fill="#FCFCFE"/>
<rect x="100" y="142.207" width="110.356" height="44.3556" rx="22.1778" transform="rotate(-15.8858 100 142.207)" fill="#FFE381"/>
<path d="M121.122 162.915L122.584 162.499L120.832 156.341L119.601 156.691L120.042 158.244L118.631 158.645L117.788 155.682L124.818 153.681L125.661 156.645L124.25 157.046L123.808 155.494L122.59 155.841L124.342 161.999L125.792 161.586L126.193 162.997L121.524 164.326L121.122 162.915Z" fill="#49494D"/>
<path d="M127.238 159.233C127.085 158.694 127.03 158.192 127.073 157.727C127.116 157.261 127.246 156.841 127.463 156.465C127.679 156.089 127.972 155.77 128.341 155.507C128.717 155.234 129.161 155.025 129.674 154.879C130.213 154.725 130.715 154.67 131.18 154.713C131.654 154.754 132.079 154.883 132.455 155.1C132.828 155.308 133.148 155.6 133.412 155.978C133.685 156.353 133.894 156.793 134.037 157.298C134.191 157.837 134.246 158.339 134.203 158.804C134.159 159.269 134.029 159.69 133.813 160.066C133.596 160.442 133.3 160.767 132.925 161.04C132.556 161.302 132.115 161.506 131.602 161.652C131.063 161.805 130.557 161.862 130.083 161.821C129.617 161.778 129.198 161.652 128.824 161.444C128.448 161.227 128.124 160.932 127.851 160.556C127.586 160.179 127.382 159.737 127.238 159.233ZM128.957 158.744C129.038 159.026 129.15 159.276 129.295 159.493C129.441 159.711 129.611 159.889 129.808 160.027C130.004 160.165 130.22 160.256 130.454 160.301C130.686 160.336 130.935 160.316 131.2 160.241C131.696 160.1 132.053 159.827 132.271 159.423C132.497 159.017 132.513 158.471 132.318 157.787C132.15 157.197 131.87 156.764 131.477 156.487C131.081 156.202 130.614 156.136 130.076 156.29C129.836 156.358 129.625 156.46 129.441 156.595C129.256 156.722 129.109 156.888 129.001 157.095C128.902 157.299 128.845 157.537 128.83 157.809C128.815 158.081 128.857 158.393 128.957 158.744Z" fill="#49494D"/>
<path d="M137.963 158.732C137.877 158.433 137.905 158.171 138.044 157.947C138.181 157.713 138.404 157.553 138.711 157.465C139.036 157.373 139.319 157.39 139.558 157.516C139.795 157.633 139.956 157.842 140.041 158.141C140.126 158.44 140.1 158.707 139.963 158.94C139.826 159.173 139.595 159.336 139.27 159.428C138.962 159.516 138.689 159.497 138.449 159.371C138.21 159.244 138.048 159.032 137.963 158.732Z" fill="#49494D"/>
<path d="M147.524 152.101C147.464 151.743 147.38 151.351 147.267 150.953C147.15 150.543 147.015 150.165 146.862 149.821L147.901 149.525L148.551 151.809L147.524 152.101ZM145.485 154.387C144.818 154.577 144.177 153.788 143.662 151.979C143.148 150.17 143.281 149.176 143.948 148.986C144.602 148.8 145.239 149.575 145.754 151.384C146.268 153.193 146.139 154.201 145.485 154.387ZM147.514 148.165L146.154 148.552C145.393 147.535 144.457 147.121 143.495 147.395C141.917 147.844 141.389 149.742 142.149 152.41C142.912 155.091 144.36 156.427 145.937 155.978C146.912 155.7 147.483 154.83 147.594 153.565L148.941 153.181L149.982 156.837L151.56 156.388L148.405 145.304L146.827 145.753L147.514 148.165ZM149.117 144.88L152.479 156.695L154.083 156.239L150.72 144.424L149.117 144.88Z" fill="#49494D"/>
<path d="M160.482 141.646L163.855 153.499L165.549 153.017L162.175 141.164L160.482 141.646ZM153.234 144.734L155.553 152.881L161.377 151.223L159.059 143.077L157.378 143.555L158.192 146.416L155.729 147.117L154.915 144.256L153.234 144.734ZM156.105 148.438L158.568 147.737L159.313 150.354L156.85 151.055L156.105 148.438Z" fill="#49494D"/>
<path d="M174.039 137.829L172.345 138.311L174.492 145.854L176.185 145.372L174.039 137.829ZM168.479 141.048C169.287 140.818 169.917 140.985 170.088 141.588C170.256 142.178 169.812 142.665 169.004 142.895C168.183 143.129 167.537 142.952 167.369 142.362C167.197 141.759 167.658 141.282 168.479 141.048ZM169.358 144.14C171.116 143.639 172.086 142.42 171.718 141.125C171.349 139.829 169.882 139.303 168.124 139.803C166.341 140.311 165.371 141.53 165.74 142.826C166.108 144.122 167.575 144.647 169.358 144.14ZM173.024 149.517C171.472 149.959 170.574 149.923 170.414 149.358C170.253 148.794 171.001 148.304 172.553 147.862C174.131 147.413 175.013 147.44 175.173 148.004C175.334 148.568 174.602 149.068 173.024 149.517ZM170.727 145.733C171.677 145.366 172.635 144.982 173.559 144.525L173.141 143.396C170.763 144.447 167.884 145.294 165.758 145.913L166.323 147.167C167.153 146.917 168.086 146.637 169.063 146.318L169.508 147.883C168.802 148.472 168.51 149.151 168.708 149.844C169.084 151.165 170.868 151.49 173.382 150.774C175.922 150.051 177.268 148.836 176.892 147.515C176.52 146.206 174.732 145.869 172.192 146.592C171.781 146.709 171.43 146.837 171.081 146.977L170.727 145.733Z" fill="#49494D"/>
<path d="M184.386 137.547C184.842 139.151 185.32 140.831 185.54 143.209L187.264 142.885C187.01 140.336 186.55 138.72 186.079 137.065L185.681 135.667L177.407 138.022L177.79 139.369L184.371 137.496L184.386 137.547ZM178.523 146.135L178.918 147.521L189.604 144.48L189.209 143.094L178.523 146.135Z" fill="#49494D"/>
<path d="M191.739 138.783L195.575 137.691L194.275 133.124L188.695 134.712L189.078 136.059L192.927 134.964L193.464 136.85L189.628 137.941L191.011 142.803L192.076 142.5C194.219 141.891 195.929 141.321 197.758 140.439L197.188 139.118C195.6 139.875 194.138 140.388 192.345 140.912L191.739 138.783ZM195.924 131.559L199.297 143.413L200.991 142.931L197.617 131.077L195.924 131.559Z" fill="#49494D"/>
<path d="M126.702 94.2588C135.835 84.3643 146.715 80.5588 151.819 82.8421L173.891 119.375C169.324 121.659 166.309 122.674 160.728 125.464C119.627 138.403 117.569 104.153 126.702 94.2588Z" fill="#FF9856"/>
<path d="M126.702 94.2588C117.569 104.153 119.627 138.403 160.728 125.464C164.902 123.982 173.859 120.408 176.294 117.972" stroke="#FFB07E" stroke-width="3.04444" stroke-linecap="round" stroke-linejoin="round"/>
</svg>
