<svg width="20" height="20" viewBox="0 0 20 20" fill="none" xmlns="http://www.w3.org/2000/svg">
<rect x="1.66699" y="1.66663" width="16.6667" height="16.6667" rx="8.33333" fill="#49494D"/>
<path d="M9.14874 11.834C9.14874 11.8721 9.17966 11.903 9.2178 11.903H10.1846C10.2228 11.903 10.2537 11.8721 10.2537 11.834C10.2691 10.9515 10.5223 10.5563 11.1745 10.1611C11.8651 9.73911 12.2833 9.15593 12.2833 8.29267C12.2833 7.04574 11.3395 6.20166 9.92759 6.20166C8.84109 6.20166 7.92901 6.73855 7.64156 7.73424C7.54858 8.05629 7.82664 8.33871 8.16184 8.33871C8.47501 8.33871 8.71547 8.08247 8.85451 7.80186C9.06658 7.37385 9.49201 7.17618 9.92375 7.17618C10.576 7.17618 11.1016 7.6059 11.1016 8.28116C11.1016 8.85666 10.7486 9.25568 10.2921 9.5396C9.57845 9.97698 9.16025 10.4105 9.14874 11.834ZM8.96457 13.4722C8.9569 13.8943 9.30988 14.2396 9.73192 14.2396C10.1501 14.2396 10.5031 13.8943 10.5031 13.4722C10.5031 13.0502 10.1501 12.7049 9.73192 12.7049C9.30988 12.7049 8.9569 13.0502 8.96457 13.4722Z" fill="white"/>
</svg>
