<svg width="28" height="28" viewBox="0 0 28 28" fill="none" xmlns="http://www.w3.org/2000/svg">
<path fill-rule="evenodd" clip-rule="evenodd" d="M6 2C3.79086 2 2 3.79086 2 6V18C2 20.2091 3.79086 22 6 22H7V25.5858C7 26.4767 8.07714 26.9229 8.70711 26.2929L13 22H22C24.2091 22 26 20.2091 26 18V6C26 3.79086 24.2091 2 22 2H6Z" fill="#C2C2C7"/>
<path fill-rule="evenodd" clip-rule="evenodd" d="M8 10C8 9.44772 8.44772 9 9 9H19C19.5523 9 20 9.44772 20 10C20 10.5523 19.5523 11 19 11H9C8.44772 11 8 10.5523 8 10Z" fill="#DCDCE0"/>
<path fill-rule="evenodd" clip-rule="evenodd" d="M8 14C8 13.4477 8.44772 13 9 13H19C19.5523 13 20 13.4477 20 14C20 14.5523 19.5523 15 19 15H9C8.44772 15 8 14.5523 8 14Z" fill="#DCDCE0"/>
</svg>
