<svg width="128" height="128" viewBox="0 0 128 128" fill="none" xmlns="http://www.w3.org/2000/svg">
<g clip-path="url(#clip0_1092_664)">
<rect width="128" height="128" fill="#FFD7BD"/>
<path d="M152.46 41.9779C134.93 21.8014 107.618 10.6829 79.1677 14.8791C63.3216 17.208 50.0464 20.6745 37.4992 30.0867C32.5281 33.8215 27.7049 38.3397 24.1216 43.62C21.3573 47.6875 19.56 52.2057 19.56 52.2057C19.3097 52.8282 17.41 57.6577 16.5227 63.6999C14.259 79.0147 20.0605 88.1586 20.3904 88.824C28.558 105.953 49.9895 115.043 67.9287 113.637C88.4615 112.016 111.315 104.944 132.041 107.745C146.533 109.698 159.536 116.674 170.081 126.773C173.755 130.293 179.704 127.642 179.875 122.416C180.922 90.7021 175.7 68.7118 152.483 41.9887L152.46 41.9779Z" fill="#FF812E"/>
<path d="M48.9739 70.6938C51.2504 70.7409 53.1433 68.6569 53.2018 66.0391C53.2603 63.4213 51.4623 61.2611 49.1857 61.214C46.9092 61.167 45.0163 63.251 44.9578 65.8688C44.8993 68.4866 46.6973 70.6468 48.9739 70.6938Z" fill="#211B15"/>
<path d="M77.6203 60.751C79.8969 60.798 81.7898 58.714 81.8483 56.0962C81.9068 53.4784 80.1087 51.3182 77.8322 51.2712C75.5557 51.2242 73.6628 53.3082 73.6043 55.9259C73.5458 58.5437 75.3438 60.704 77.6203 60.751Z" fill="#211B15"/>
<path d="M72.6586 67.6731C73.7434 70.929 72.1365 74.404 69.0695 75.4346C66.0024 76.4651 62.6367 74.6611 61.5519 71.4052C60.4671 68.1492 63.0878 67.7171 66.1549 66.6865C69.2219 65.6559 71.5739 64.4171 72.6586 67.6731Z" fill="#5F463E"/>
</g>
<defs>
<clipPath id="clip0_1092_664">
<rect width="128" height="128" fill="white"/>
</clipPath>
</defs>
</svg>
